<?xml version="1.0" encoding="UTF-8"?>
<svg xmlns="http://www.w3.org/2000/svg" xmlns:xlink="http://www.w3.org/1999/xlink" width="30px" height="30px" viewBox="0 0 30 30" version="1.1">
<g id="surface1">
<path style=" stroke:none;fill-rule:nonzero;fill:rgb(0%,0%,0%);fill-opacity:1;" d="M 15.257812 11.734375 C 15.558594 12.394531 16.074219 12.800781 16.703125 13.179688 C 16.742188 12.816406 16.933594 12.539062 16.851562 12.183594 C 16.808594 11.984375 16.960938 11.800781 17.09375 11.652344 C 17.195312 11.539062 17.25 11.414062 17.167969 11.289062 C 16.972656 10.988281 17.171875 10.820312 17.378906 10.59375 C 17.585938 11.054688 18.007812 11.066406 18.40625 11.160156 C 18.855469 11.269531 19.214844 11.550781 19.5 11.898438 C 19.421875 12.007812 19.375 12.003906 19.316406 11.984375 C 18.921875 11.851562 18.210938 12.085938 18.09375 12.480469 C 17.984375 12.855469 17.929688 13.273438 18.136719 13.675781 C 18.429688 14.246094 18.933594 14.664062 19.191406 15.257812 C 19.523438 16.03125 19.25 16.71875 18.949219 17.410156 C 18.507812 17.542969 18.617188 17.984375 18.460938 18.28125 C 18.363281 18.464844 18.285156 18.65625 18.058594 18.875 C 18.09375 18.03125 17.957031 17.300781 17.550781 16.636719 C 17.691406 17.195312 17.878906 17.753906 17.585938 18.402344 C 17.238281 16.792969 16.253906 15.859375 14.832031 15.285156 C 14.777344 15.472656 14.984375 15.492188 14.921875 15.679688 C 14.476562 15.605469 14.015625 15.605469 13.558594 15.707031 C 12.34375 15.972656 11.648438 15.289062 11.222656 14.386719 C 11.207031 14.351562 11.214844 14.304688 11.210938 14.261719 C 11.382812 14.183594 11.484375 14.363281 11.691406 14.335938 C 11.46875 14.027344 11.175781 13.796875 11.046875 13.460938 C 10.921875 13.136719 10.742188 12.828125 10.785156 12.371094 C 11.011719 12.640625 11.171875 12.84375 11.34375 13.042969 C 11.585938 13.324219 11.863281 13.5625 12.191406 13.742188 C 12.589844 13.964844 12.984375 13.886719 13.355469 13.695312 C 13.605469 13.5625 13.730469 13.328125 13.578125 12.976562 C 13.363281 13.4375 13.023438 13.453125 12.632812 13.363281 C 11.960938 13.207031 11.464844 12.847656 11.171875 12.207031 C 10.796875 11.382812 10.714844 10.515625 10.769531 9.625 C 10.769531 9.585938 10.796875 9.550781 10.839844 9.449219 C 11.011719 9.785156 11.15625 10.066406 11.304688 10.351562 C 11.144531 9.769531 11.066406 9.199219 11.238281 8.605469 C 11.269531 8.773438 11.304688 8.941406 11.332031 9.109375 C 11.371094 9.363281 11.386719 9.625 11.660156 9.761719 C 11.6875 9.777344 11.707031 9.8125 11.71875 9.84375 C 11.988281 10.601562 12.574219 11.105469 13.152344 11.617188 C 13.707031 12.109375 14.074219 12.691406 14.113281 13.449219 C 14.230469 12.839844 13.976562 12.332031 13.652344 11.851562 C 13.332031 11.382812 12.914062 10.988281 12.511719 10.515625 C 12.53125 10.648438 12.542969 10.746094 12.558594 10.855469 C 11.8125 10.25 11.460938 7.800781 12.136719 6.578125 C 12.199219 6.929688 12.078125 7.234375 12.214844 7.546875 C 12.496094 6.035156 13.257812 4.867188 14.636719 4.121094 C 14.335938 5.289062 14.128906 6.457031 14.261719 7.667969 C 14.394531 8.894531 14.867188 9.96875 15.609375 10.949219 C 14.652344 10.394531 14.265625 9.414062 13.765625 8.464844 C 13.671875 8.660156 13.753906 8.804688 13.769531 8.945312 C 13.792969 9.132812 13.941406 9.316406 13.78125 9.511719 C 13.761719 9.535156 13.796875 9.621094 13.828125 9.660156 C 14.28125 10.238281 14.597656 10.882812 14.792969 11.589844 C 14.808594 11.652344 14.851562 11.707031 14.894531 11.78125 C 15.046875 11.605469 14.820312 11.417969 14.964844 11.25 C 15.128906 11.363281 15.132812 11.574219 15.257812 11.734375 Z M 15.257812 11.734375 "/>
<path style=" stroke:none;fill-rule:nonzero;fill:rgb(0%,0%,0%);fill-opacity:1;" d="M 14.394531 23.648438 C 14.417969 23.4375 14.46875 23.257812 14.414062 23.011719 C 14.128906 23.492188 14.183594 23.984375 14.125 24.480469 C 13.484375 23.929688 13.59375 22.722656 14.320312 21.84375 C 14.070312 21.972656 14.003906 22.046875 13.855469 22.304688 C 13.742188 22.488281 13.699219 22.71875 13.46875 22.882812 C 13.382812 22.382812 13.425781 21.929688 13.644531 21.460938 C 13.46875 21.480469 13.363281 21.457031 13.417969 21.253906 C 13.460938 21.09375 13.492188 20.929688 13.566406 20.777344 C 13.640625 20.625 13.734375 20.511719 13.664062 20.28125 C 13.601562 20.074219 13.832031 19.839844 14.074219 19.730469 C 14.257812 19.648438 14.453125 19.597656 14.660156 19.621094 C 15.082031 19.671875 15.515625 19.605469 15.90625 19.507812 C 16.371094 19.390625 16.71875 19.015625 16.921875 18.554688 C 17.007812 18.367188 17.0625 18.160156 17.257812 17.957031 C 17.378906 18.382812 17.351562 18.789062 17.492188 19.167969 C 17.539062 19.128906 17.585938 19.089844 17.671875 19.023438 C 17.757812 19.582031 17.636719 20.054688 17.289062 20.445312 C 16.800781 20.992188 16.183594 21.410156 15.730469 22 C 15.554688 22.230469 15.363281 22.449219 15.253906 22.71875 C 15.1875 22.878906 15.007812 23.035156 15.257812 23.195312 C 15.277344 23.210938 15.273438 23.28125 15.265625 23.324219 C 15.023438 24.285156 15.28125 25.148438 15.792969 25.957031 C 15.8125 25.992188 15.808594 26.039062 15.816406 26.082031 C 15.242188 26.082031 14.429688 24.992188 14.394531 23.648438 Z M 14.394531 23.648438 "/>
<path style=" stroke:none;fill-rule:nonzero;fill:rgb(0%,0%,0%);fill-opacity:1;" d="M 16.269531 17.355469 C 16.25 17.222656 16.183594 17.121094 16.226562 17.015625 C 16.363281 16.941406 16.394531 17.101562 16.472656 17.125 C 16.542969 17.070312 16.496094 16.972656 16.609375 16.9375 C 16.773438 17.003906 16.832031 17.164062 16.890625 17.332031 C 17.152344 18.066406 16.839844 18.753906 16.386719 18.917969 C 16.25 18.859375 16.40625 18.753906 16.339844 18.683594 C 16.226562 18.648438 16.132812 18.824219 15.96875 18.703125 C 16.21875 18.304688 16.414062 17.875 16.269531 17.355469 Z M 16.269531 17.355469 "/>
</g>
</svg>
