<?xml version="1.0" encoding="UTF-8"?>
<svg xmlns="http://www.w3.org/2000/svg" xmlns:xlink="http://www.w3.org/1999/xlink" width="40px" height="40px" viewBox="0 0 40 40" version="1.1">
<g id="surface1">
<path style=" stroke:none;fill-rule:nonzero;fill:rgb(65.098041%,65.098041%,65.098041%);fill-opacity:1;" d="M 7.503906 40.113281 C 5.253906 40.167969 3.054688 40.144531 0.851562 40.1875 C 0.277344 40.199219 0.152344 40.085938 0.152344 39.496094 C 0.175781 29.417969 0.167969 19.335938 0.167969 9.257812 C 0.167969 6.433594 0.175781 3.613281 0.160156 0.789062 C 0.160156 0.355469 0.15625 0.148438 0.734375 0.148438 C 13.695312 0.175781 26.652344 0.171875 39.613281 0.15625 C 40.066406 0.15625 40.183594 0.230469 40.183594 0.714844 C 40.164062 13.671875 40.164062 26.628906 40.1875 39.589844 C 40.1875 40.132812 40.035156 40.195312 39.5625 40.179688 C 38.351562 40.144531 37.136719 40.167969 35.84375 40.167969 C 35.707031 40.105469 35.660156 40.035156 35.621094 39.894531 C 36.199219 38.574219 36.410156 37.285156 35.855469 35.894531 C 35.1875 34.878906 34.949219 33.96875 35.234375 32.707031 C 35.472656 31.652344 35.617188 30.398438 35.28125 29.175781 C 35.402344 28.261719 35.128906 27.460938 34.925781 26.589844 C 34.71875 26.066406 35.171875 25.691406 35.09375 25.25 C 34.996094 24.699219 34.773438 24.195312 34.484375 23.65625 C 34.585938 22.738281 34.761719 21.886719 34.65625 21.183594 C 34.648438 21.574219 34.6875 22.132812 34.605469 22.742188 C 34.46875 22.890625 34.347656 22.929688 34.144531 22.921875 C 33.941406 22.863281 33.839844 22.773438 33.746094 22.589844 C 33.894531 21.902344 33.710938 21.367188 33.269531 20.835938 C 33.179688 20.457031 33.1875 20.140625 33.246094 19.761719 C 33.390625 19.445312 33.644531 19.296875 33.832031 19.035156 C 33.863281 19 33.914062 18.933594 33.929688 18.898438 C 33.957031 18.8125 33.960938 18.761719 33.941406 18.667969 C 33.921875 18.597656 33.914062 18.566406 33.894531 18.492188 C 33.859375 18.320312 33.839844 18.195312 33.773438 18.027344 C 33.742188 17.953125 33.730469 17.921875 33.699219 17.84375 C 33.664062 17.734375 33.652344 17.671875 33.632812 17.558594 C 33.613281 17.484375 33.597656 17.453125 33.5625 17.378906 C 33.527344 17.308594 33.515625 17.28125 33.488281 17.203125 C 33.46875 17.128906 33.464844 17.097656 33.445312 17.019531 C 33.421875 16.945312 33.410156 16.917969 33.378906 16.84375 C 33.347656 16.773438 33.335938 16.746094 33.304688 16.671875 C 33.273438 16.601562 33.261719 16.574219 33.226562 16.503906 C 33.191406 16.433594 33.175781 16.402344 33.144531 16.332031 C 33.101562 16.226562 33.074219 16.167969 33.027344 16.066406 C 32.996094 15.988281 32.988281 15.957031 32.976562 15.871094 C 32.96875 15.753906 32.964844 15.6875 32.953125 15.566406 C 32.925781 15.371094 32.835938 15.261719 32.703125 15.113281 C 32.550781 14.914062 32.375 14.828125 32.191406 14.65625 C 31.851562 13.128906 30.667969 12.148438 30.035156 10.847656 C 29.617188 9.980469 29.144531 9.152344 28.964844 8.203125 C 28.878906 7.746094 28.679688 7.359375 28.476562 6.960938 C 28.125 6.269531 27.613281 5.832031 26.851562 5.605469 C 26.160156 5.398438 25.507812 5.074219 24.921875 4.597656 C 24.042969 3.882812 22.984375 3.957031 21.9375 4.121094 C 21.796875 4.144531 21.648438 4.136719 21.523438 4.199219 C 19.84375 4.980469 18.105469 4.945312 16.339844 4.605469 C 15.671875 4.476562 15.179688 4.730469 14.699219 5.226562 C 13.933594 6.011719 13.347656 6.957031 12.429688 7.671875 C 12.125 7.746094 11.828125 7.632812 11.621094 7.953125 C 11.546875 8.097656 11.484375 8.179688 11.390625 8.304688 C 11.34375 8.371094 11.324219 8.398438 11.277344 8.464844 C 11.226562 8.523438 11.203125 8.546875 11.128906 8.644531 C 11.054688 8.746094 11.039062 8.773438 11 8.835938 C 10.964844 8.90625 10.953125 8.933594 10.917969 9 C 10.882812 9.066406 10.867188 9.09375 10.832031 9.164062 C 10.796875 9.230469 10.785156 9.257812 10.75 9.328125 C 10.710938 9.398438 10.695312 9.425781 10.652344 9.492188 C 10.613281 9.5625 10.59375 9.589844 10.554688 9.660156 C 10.5 9.761719 10.472656 9.824219 10.429688 9.933594 C 10.402344 10.019531 10.390625 10.050781 10.347656 10.128906 C 10.195312 10.320312 10.121094 10.480469 10.101562 10.734375 C 9.625 12.953125 8.992188 15.042969 8.074219 17.074219 C 7.511719 18.320312 7.386719 19.726562 8.15625 21.03125 C 8.316406 21.300781 8.371094 21.609375 8.464844 21.96875 C 8.488281 22.191406 8.488281 22.355469 8.527344 22.578125 C 8.542969 22.730469 8.535156 22.816406 8.496094 22.964844 C 8.078125 24.253906 8.085938 25.476562 8.488281 26.765625 C 8.601562 27.046875 8.59375 27.269531 8.519531 27.554688 C 8.0625 28.214844 8.234375 28.945312 8.074219 29.65625 C 8.125 29.78125 8.15625 29.855469 8.203125 29.984375 C 8.242188 30.207031 8.203125 30.359375 8.121094 30.566406 C 7.925781 30.828125 7.859375 31.058594 7.964844 31.386719 C 7.917969 31.820312 7.976562 32.175781 8.074219 32.53125 C 8.230469 33.09375 8.230469 33.667969 7.972656 34.1875 C 7.3125 35.519531 7.503906 36.855469 7.894531 38.199219 C 7.941406 38.367188 7.972656 38.527344 7.933594 38.765625 C 7.617188 39.191406 7.820312 39.695312 7.503906 40.113281 Z M 7.503906 40.113281 "/>
<path style=" stroke:none;fill-rule:nonzero;fill:rgb(0.784314%,0.784314%,0.784314%);fill-opacity:1;" d="M 8.203125 27.675781 C 8.246094 27.425781 8.261719 27.242188 8.265625 27 C 8.03125 25.644531 8.140625 24.339844 8.21875 22.957031 C 8.265625 22.808594 8.273438 22.730469 8.269531 22.597656 C 8.199219 22.453125 8.195312 22.355469 8.167969 22.214844 C 7.890625 21.179688 7.328125 20.285156 7.402344 19.183594 C 7.464844 18.277344 7.519531 17.367188 7.902344 16.554688 C 8.53125 15.230469 8.824219 13.796875 9.320312 12.429688 C 9.480469 12 9.84375 11.589844 9.351562 11.058594 C 9.070312 10.757812 9.601562 10.761719 9.804688 10.582031 C 9.96875 10.347656 10.074219 10.144531 10.28125 9.945312 C 10.757812 9.320312 11.078125 8.660156 11.515625 8.074219 C 11.695312 7.839844 11.894531 7.675781 12.1875 7.503906 C 13.007812 6.578125 13.789062 5.691406 14.550781 4.785156 C 14.96875 4.289062 15.476562 4.054688 16.117188 4.171875 C 17.929688 4.496094 19.667969 4.515625 21.472656 3.851562 C 22.886719 3.332031 24.425781 3.402344 25.644531 4.636719 C 25.828125 4.824219 26.125 4.933594 26.390625 5.011719 C 27.914062 5.464844 28.8125 6.5625 29.273438 7.988281 C 30.015625 10.265625 31.058594 12.328125 32.886719 13.925781 C 32.949219 14.34375 31.953125 13.699219 32.386719 14.511719 C 32.578125 14.777344 32.734375 14.996094 32.921875 15.269531 C 33.089844 16.167969 33.457031 16.933594 33.679688 17.746094 C 33.847656 18.371094 33.90625 18.949219 33.605469 19.605469 C 33.570312 20.007812 33.570312 20.355469 33.59375 20.773438 C 33.710938 21.3125 33.910156 21.757812 33.890625 22.3125 C 33.914062 22.46875 33.945312 22.5625 34.015625 22.683594 C 34.25 22.882812 34.480469 23.023438 34.570312 23.347656 C 34.621094 23.425781 34.644531 23.453125 34.707031 23.523438 C 35.261719 24.425781 35.59375 25.316406 35.152344 26.382812 C 35.148438 26.597656 35.097656 26.734375 35.019531 26.925781 C 34.871094 27.507812 35.214844 27.90625 35.394531 28.414062 C 35.4375 28.695312 35.394531 28.933594 35.507812 29.203125 C 35.902344 29.914062 35.976562 30.601562 35.691406 31.320312 C 35.546875 31.683594 35.703125 32.035156 35.71875 32.386719 C 35.730469 32.652344 36.449219 33.277344 35.429688 33.222656 C 35.40625 33.21875 35.285156 33.597656 35.339844 33.753906 C 35.566406 34.390625 35.578125 35.113281 36.085938 35.703125 C 36 35.929688 35.851562 35.988281 35.621094 36.019531 C 34.96875 36.769531 35.007812 38.460938 35.679688 38.898438 C 35.953125 39.164062 35.894531 39.429688 35.792969 39.75 C 35.738281 39.886719 35.722656 39.96875 35.738281 40.109375 C 34.121094 40.167969 32.480469 40.167969 30.757812 40.167969 C 30.347656 39.890625 30.3125 39.539062 30.492188 39.179688 C 30.871094 38.421875 30.652344 37.753906 30.199219 37.132812 C 29.683594 36.425781 29.402344 35.667969 29.167969 34.804688 C 28.851562 33.644531 28.289062 32.5 27.574219 31.488281 C 27.089844 30.800781 26.695312 30.871094 26.253906 31.585938 C 26.003906 31.992188 25.839844 32.449219 25.492188 32.867188 C 24.847656 33.5 24.039062 33.988281 24.453125 35.121094 C 24.472656 36.445312 24.480469 37.699219 24.460938 38.953125 C 24.453125 39.335938 24.5 39.746094 24.125 40.113281 C 23.941406 40.167969 23.8125 40.167969 23.621094 40.167969 C 23.191406 39.894531 23.171875 39.503906 23.234375 39.105469 C 23.308594 38.660156 23.304688 38.214844 23.300781 37.707031 C 23.242188 37.464844 23.390625 37.214844 23.058594 37.144531 C 22.65625 37.792969 22.515625 38.488281 22.464844 39.199219 C 22.4375 39.539062 22.464844 39.875 22.078125 40.128906 C 21.6875 40.167969 21.34375 40.167969 20.921875 40.167969 C 20.347656 39.757812 20.84375 39.214844 20.65625 38.777344 C 20.644531 38.648438 20.523438 38.769531 20.632812 38.734375 C 20.664062 38.722656 20.679688 38.746094 20.679688 38.800781 C 20.667969 39.242188 20.71875 39.695312 20.382812 40.125 C 19.542969 40.167969 18.75 40.167969 17.875 40.167969 C 17.546875 39.949219 17.445312 39.6875 17.5 39.34375 C 17.59375 38.761719 17.625 38.171875 17.800781 37.605469 C 18.007812 36.945312 18.015625 36.292969 17.863281 35.613281 C 17.679688 34.804688 17.777344 34.003906 18.25 33.222656 C 18.351562 33.164062 18.390625 33.144531 18.5 33.125 C 18.992188 33.511719 18.992188 33.511719 18.914062 34.078125 C 18.933594 33.5625 19.238281 33.019531 19.351562 32.382812 C 19.292969 32.28125 19.242188 32.234375 19.148438 32.15625 C 19.082031 32.09375 19.054688 32.066406 19.003906 31.984375 C 18.792969 31.46875 19.082031 31.125 19.289062 30.761719 C 19.679688 30.078125 20.089844 29.402344 20.257812 28.558594 C 20.269531 28.46875 20.277344 28.433594 20.300781 28.351562 C 20.34375 28.25 20.414062 28.195312 20.390625 28.144531 C 20.34375 28.042969 20.4375 28.132812 20.28125 28.152344 C 20.207031 28.109375 20.179688 28.082031 20.125 28.007812 C 19.984375 27.402344 19.945312 26.835938 19.976562 26.210938 C 20.039062 25.800781 20.132812 25.410156 19.761719 25.203125 C 19.511719 25.0625 19.21875 25.109375 19.121094 25.542969 C 19.265625 26.460938 19.183594 27.316406 19.074219 28.234375 C 19.003906 28.378906 18.945312 28.449219 18.808594 28.53125 C 17.894531 28.144531 17.265625 28.585938 16.625 29.085938 C 15.78125 29.742188 14.875 30.316406 14.023438 30.96875 C 13.773438 31.160156 13.515625 31.351562 13.433594 31.664062 C 13.234375 32.460938 12.855469 33.183594 12.535156 33.933594 C 12.265625 34.570312 12.308594 35.21875 12.320312 35.90625 C 12.34375 37.320312 12.242188 38.757812 11.566406 40.125 C 10.335938 40.167969 9.144531 40.167969 7.875 40.167969 C 7.433594 39.777344 7.792969 39.324219 7.703125 38.851562 C 7.246094 37.054688 7.101562 35.316406 7.765625 33.589844 C 7.886719 33.273438 7.761719 32.988281 7.683594 32.691406 C 7.566406 32.242188 7.328125 31.789062 7.613281 31.25 C 7.640625 30.988281 7.597656 30.785156 7.757812 30.566406 C 7.992188 30.46875 8.011719 30.296875 8.070312 30.082031 C 8.011719 29.902344 7.96875 29.78125 7.9375 29.585938 C 8.261719 28.960938 8.027344 28.320312 8.203125 27.675781 Z M 8.203125 27.675781 "/>
<path style=" stroke:none;fill-rule:nonzero;fill:rgb(31.764707%,31.764707%,31.764707%);fill-opacity:1;" d="M 11.605469 40.167969 C 11.613281 39.300781 11.640625 38.421875 11.800781 37.566406 C 11.953125 36.777344 12.042969 36.011719 11.820312 35.234375 C 11.730469 34.910156 11.839844 34.628906 11.941406 34.332031 C 12.261719 33.375 12.871094 32.527344 13.007812 31.496094 C 13.039062 31.265625 13.195312 31.085938 13.382812 30.953125 C 14.734375 29.984375 16.082031 29.007812 17.441406 28.054688 C 17.925781 27.714844 18.375 27.675781 18.621094 28.421875 C 19.335938 29.246094 19.855469 28.65625 20.453125 28.289062 C 20.496094 29.320312 20.183594 30.21875 19.59375 31.035156 C 19.398438 31.300781 19.179688 31.5625 19.125 32.027344 C 18.972656 32.496094 18.921875 32.902344 18.53125 33.183594 C 18.238281 33.839844 18.0625 34.542969 18.226562 35.125 C 18.558594 36.316406 18.261719 37.398438 18.019531 38.519531 C 17.910156 39.015625 17.890625 39.527344 17.8125 40.101562 C 17.394531 40.167969 16.992188 40.167969 16.515625 40.167969 C 16.03125 39.863281 16.0625 39.410156 16.042969 38.914062 C 16.089844 38.195312 16.089844 37.546875 15.75 36.902344 C 15.722656 36.828125 15.714844 36.800781 15.675781 36.753906 C 15.660156 36.757812 15.679688 36.777344 15.71875 36.84375 C 15.847656 37.152344 16.011719 37.398438 16.019531 37.761719 C 15.90625 38.574219 16.324219 39.398438 15.640625 40.121094 C 14.289062 40.167969 12.988281 40.167969 11.605469 40.167969 Z M 11.605469 40.167969 "/>
<path style=" stroke:none;fill-rule:nonzero;fill:rgb(31.764707%,31.764707%,31.764707%);fill-opacity:1;" d="M 25.195312 32.722656 C 25.554688 32.019531 25.90625 31.378906 26.21875 30.71875 C 26.375 30.386719 26.558594 30.320312 26.875 30.492188 C 27.222656 30.675781 27.671875 30.796875 27.847656 31.136719 C 28.539062 32.488281 29.507812 33.726562 29.640625 35.3125 C 29.671875 35.640625 29.757812 35.894531 29.972656 36.148438 C 30.246094 36.464844 30.445312 36.847656 30.695312 37.183594 C 31.199219 37.859375 31.269531 38.554688 30.871094 39.308594 C 30.757812 39.523438 30.742188 39.792969 30.679688 40.101562 C 29.207031 40.167969 27.734375 40.167969 26.179688 40.167969 C 26.007812 40.066406 25.914062 39.96875 25.859375 39.765625 C 25.90625 39.363281 26.035156 39.035156 26.027344 38.625 C 26.121094 38.191406 26.429688 37.898438 26.402344 37.433594 C 26.375 37.191406 26.316406 37.011719 26.222656 36.785156 C 26.148438 36.269531 25.910156 35.867188 25.777344 35.371094 C 25.738281 35.214844 25.722656 35.113281 25.632812 34.984375 C 25.558594 34.890625 25.515625 34.839844 25.433594 34.753906 C 25.367188 34.703125 25.339844 34.683594 25.269531 34.636719 C 25.199219 34.585938 25.171875 34.5625 25.109375 34.5 C 25.050781 34.429688 25.027344 34.402344 24.980469 34.328125 C 24.921875 34.210938 24.898438 34.144531 24.871094 34.019531 C 24.851562 33.929688 24.847656 33.890625 24.839844 33.800781 C 24.835938 33.667969 24.835938 33.59375 24.847656 33.460938 C 24.914062 33.171875 25.046875 32.976562 25.195312 32.722656 Z M 25.195312 32.722656 "/>
<path style=" stroke:none;fill-rule:nonzero;fill:rgb(32.156864%,32.156864%,32.156864%);fill-opacity:1;" d="M 25.632812 34.644531 C 25.863281 34.777344 25.992188 34.832031 26.082031 35.027344 C 26.238281 35.539062 26.167969 36.027344 26.273438 36.558594 C 26.375 37.046875 26.351562 37.480469 26.378906 37.96875 C 26.402344 38.164062 26.355469 38.273438 26.246094 38.425781 C 26.15625 38.816406 26.054688 39.15625 26.117188 39.566406 C 26.105469 39.761719 26.105469 39.898438 26.101562 40.101562 C 25.476562 40.167969 24.851562 40.167969 24.144531 40.167969 C 24.003906 38.476562 24 36.78125 24.101562 35.007812 C 24.378906 34.601562 24.1875 34.066406 24.679688 33.792969 C 24.828125 33.761719 24.910156 33.777344 25.039062 33.859375 C 25.085938 33.898438 25.085938 33.898438 25.082031 33.898438 C 25.15625 33.96875 25.167969 34.070312 25.226562 34.203125 C 25.257812 34.242188 25.253906 34.238281 25.253906 34.234375 C 25.289062 34.273438 25.328125 34.3125 25.394531 34.378906 C 25.425781 34.40625 25.421875 34.40625 25.421875 34.40625 C 25.46875 34.445312 25.507812 34.492188 25.632812 34.644531 Z M 25.632812 34.644531 "/>
<path style=" stroke:none;fill-rule:nonzero;fill:rgb(31.764707%,31.764707%,31.764707%);fill-opacity:1;" d="M 22.097656 40.167969 C 22.253906 39.007812 22.363281 37.820312 22.84375 36.65625 C 23.472656 36.765625 23.226562 37.273438 23.304688 37.714844 C 23.304688 37.832031 23.304688 37.878906 23.300781 37.992188 C 23.046875 38.71875 22.925781 39.421875 22.585938 40.121094 C 22.414062 40.167969 22.289062 40.167969 22.097656 40.167969 Z M 22.097656 40.167969 "/>
<path style=" stroke:none;fill-rule:nonzero;fill:rgb(29.019609%,29.019609%,29.019609%);fill-opacity:1;" d="M 23.476562 37.292969 C 23.539062 38.210938 23.542969 39.109375 23.554688 40.089844 C 23.324219 40.167969 23.089844 40.167969 22.78125 40.167969 C 22.453125 39.429688 22.984375 38.792969 23.011719 38.023438 C 23.050781 37.964844 23.050781 37.964844 23.050781 37.964844 C 23.21875 37.765625 23.109375 37.40625 23.476562 37.292969 Z M 23.476562 37.292969 "/>
<path style=" stroke:none;fill-rule:nonzero;fill:rgb(21.960784%,21.960784%,21.960784%);fill-opacity:1;" d="M 15.664062 40.167969 C 15.675781 39.367188 15.757812 38.5625 15.871094 37.699219 C 16.292969 37.90625 16.203125 38.371094 16.40625 38.78125 C 16.273438 39.230469 16.523438 39.636719 16.441406 40.105469 C 16.207031 40.167969 15.96875 40.167969 15.664062 40.167969 Z M 15.664062 40.167969 "/>
<path style=" stroke:none;fill-rule:nonzero;fill:rgb(29.019609%,29.019609%,29.019609%);fill-opacity:1;" d="M 20.402344 40.167969 C 20.351562 39.628906 20.507812 39.121094 20.839844 38.609375 C 20.839844 39.078125 20.839844 39.550781 20.84375 40.09375 C 20.71875 40.167969 20.59375 40.167969 20.402344 40.167969 Z M 20.402344 40.167969 "/>
<path style=" stroke:none;fill-rule:nonzero;fill:rgb(51.764709%,51.764709%,51.764709%);fill-opacity:1;" d="M 7.667969 38.84375 C 8.265625 39.175781 7.734375 39.625 7.796875 40.105469 C 7.722656 40.167969 7.644531 40.167969 7.515625 40.167969 C 7.488281 39.742188 7.375 39.292969 7.667969 38.84375 Z M 7.667969 38.84375 "/>
<path style=" stroke:none;fill-rule:nonzero;fill:rgb(21.960784%,21.960784%,21.960784%);fill-opacity:1;" d="M 23.007812 38.011719 C 23.101562 38.679688 22.746094 39.328125 22.714844 40.101562 C 22.710938 40.167969 22.628906 40.167969 22.585938 40.167969 C 22.507812 39.429688 22.671875 38.730469 23.007812 38.011719 Z M 23.007812 38.011719 "/>
<path style=" stroke:none;fill-rule:nonzero;fill:rgb(63.137257%,63.137257%,63.137257%);fill-opacity:1;" d="M 33.617188 19.640625 C 33.648438 18.160156 33.183594 16.773438 32.660156 15.335938 C 32.683594 15.171875 32.710938 15.0625 32.828125 14.945312 C 33.15625 15.003906 33.214844 15.222656 33.214844 15.542969 C 33.128906 15.675781 33.136719 15.765625 33.195312 15.898438 C 33.222656 15.9375 33.21875 15.933594 33.21875 15.929688 C 33.292969 16.003906 33.304688 16.101562 33.363281 16.234375 C 33.394531 16.273438 33.386719 16.273438 33.386719 16.269531 C 33.460938 16.339844 33.472656 16.441406 33.53125 16.574219 C 33.5625 16.613281 33.558594 16.609375 33.558594 16.609375 C 33.632812 16.679688 33.640625 16.78125 33.699219 16.914062 C 33.730469 16.953125 33.726562 16.949219 33.726562 16.949219 C 33.800781 17.019531 33.8125 17.121094 33.871094 17.253906 C 33.902344 17.292969 33.898438 17.289062 33.898438 17.285156 C 34.019531 17.40625 33.964844 17.570312 34.035156 17.757812 C 34.070312 17.800781 34.066406 17.796875 34.066406 17.792969 C 34.21875 17.96875 34.117188 18.1875 34.203125 18.429688 C 34.238281 18.476562 34.234375 18.476562 34.238281 18.472656 C 34.363281 18.609375 34.308594 18.78125 34.277344 19.050781 C 33.949219 19.199219 33.898438 19.519531 33.617188 19.640625 Z M 33.617188 19.640625 "/>
<path style=" stroke:none;fill-rule:nonzero;fill:rgb(8.627451%,8.627451%,8.627451%);fill-opacity:1;" d="M 35.417969 35.792969 C 35.636719 35.757812 35.800781 35.761719 36.027344 35.765625 C 36.574219 37.132812 36.589844 38.464844 35.78125 39.773438 C 35.691406 39.535156 35.636719 39.265625 35.5625 38.933594 C 35.378906 38.648438 35.445312 38.414062 35.523438 38.128906 C 35.855469 37.707031 35.667969 37.382812 35.445312 37.003906 C 35.414062 36.574219 35.210938 36.210938 35.417969 35.792969 Z M 35.417969 35.792969 "/>
<path style=" stroke:none;fill-rule:nonzero;fill:rgb(60.784316%,60.784316%,60.784316%);fill-opacity:1;" d="M 12.175781 7.460938 C 11.652344 8.308594 11.070312 9.144531 10.433594 10.003906 C 10.335938 10.046875 10.289062 10.066406 10.203125 10.027344 C 10.160156 9.964844 10.160156 9.910156 10.160156 9.886719 C 10.238281 9.777344 10.25 9.671875 10.308594 9.527344 C 10.339844 9.484375 10.339844 9.492188 10.335938 9.492188 C 10.410156 9.421875 10.421875 9.320312 10.480469 9.1875 C 10.507812 9.144531 10.511719 9.152344 10.507812 9.152344 C 10.582031 9.082031 10.589844 8.984375 10.648438 8.847656 C 10.675781 8.808594 10.679688 8.8125 10.675781 8.816406 C 10.753906 8.742188 10.761719 8.640625 10.820312 8.507812 C 10.847656 8.46875 10.847656 8.476562 10.84375 8.476562 C 10.882812 8.441406 10.921875 8.402344 10.988281 8.332031 C 11.019531 8.300781 11.019531 8.308594 11.015625 8.304688 C 11.113281 8.230469 11.226562 8.171875 11.320312 8.019531 C 11.429688 7.550781 11.609375 7.261719 12.175781 7.460938 Z M 12.175781 7.460938 "/>
<path style=" stroke:none;fill-rule:nonzero;fill:rgb(67.843139%,67.843139%,67.843139%);fill-opacity:1;" d="M 8.203125 22.917969 C 8.261719 24.1875 8.269531 25.488281 8.265625 26.867188 C 8.1875 26.890625 8.070312 26.84375 8.066406 26.78125 C 7.953125 25.503906 7.804688 24.222656 8.203125 22.917969 Z M 8.203125 22.917969 "/>
<path style=" stroke:none;fill-rule:nonzero;fill:rgb(51.764709%,51.764709%,51.764709%);fill-opacity:1;" d="M 8.175781 27.652344 C 8.363281 28.257812 8.328125 28.894531 8.152344 29.597656 C 8.066406 29.734375 7.996094 29.792969 7.851562 29.804688 C 7.699219 29.070312 7.914062 28.382812 8.175781 27.652344 Z M 8.175781 27.652344 "/>
<path style=" stroke:none;fill-rule:nonzero;fill:rgb(50.588238%,50.588238%,50.588238%);fill-opacity:1;" d="M 34.789062 26.847656 C 34.769531 26.613281 34.902344 26.539062 35.070312 26.449219 C 35.640625 27.269531 35.558594 28.191406 35.523438 29.179688 C 35.402344 29.066406 35.300781 28.875 35.21875 28.628906 C 35.035156 28.039062 35.054688 27.441406 34.789062 26.847656 Z M 34.789062 26.847656 "/>
<path style=" stroke:none;fill-rule:nonzero;fill:rgb(50.588238%,50.588238%,50.588238%);fill-opacity:1;" d="M 34.746094 23.484375 C 34.714844 23.554688 34.683594 23.550781 34.609375 23.53125 C 34.429688 23.304688 34.363281 23.078125 34.515625 22.769531 C 34.617188 21.878906 34.558594 21.050781 34.417969 20.226562 C 34.527344 20.222656 34.640625 20.21875 34.75 20.214844 C 34.75 21.277344 34.75 22.339844 34.746094 23.484375 Z M 34.746094 23.484375 "/>
<path style=" stroke:none;fill-rule:nonzero;fill:rgb(63.137257%,63.137257%,63.137257%);fill-opacity:1;" d="M 33.925781 22.347656 C 33.59375 21.953125 33.671875 21.453125 33.601562 20.914062 C 33.914062 21.292969 34.347656 21.703125 33.925781 22.347656 Z M 33.925781 22.347656 "/>
<path style=" stroke:none;fill-rule:nonzero;fill:rgb(63.137257%,63.137257%,63.137257%);fill-opacity:1;" d="M 34.492188 22.710938 C 34.558594 22.933594 34.5625 23.160156 34.566406 23.453125 C 34.191406 23.441406 34.277344 23.03125 34.0625 22.773438 C 34.179688 22.714844 34.304688 22.714844 34.492188 22.710938 Z M 34.492188 22.710938 "/>
<path style=" stroke:none;fill-rule:nonzero;fill:rgb(56.078434%,56.078434%,56.078434%);fill-opacity:1;" d="M 7.765625 30.507812 C 7.816406 30.726562 7.832031 30.925781 7.65625 31.140625 C 7.503906 30.929688 7.277344 30.65625 7.765625 30.507812 Z M 7.765625 30.507812 "/>
<path style=" stroke:none;fill-rule:nonzero;fill:rgb(51.764709%,51.764709%,51.764709%);fill-opacity:1;" d="M 32.84375 14.875 C 32.828125 15.015625 32.78125 15.113281 32.691406 15.242188 C 32.5625 15.070312 32.480469 14.871094 32.410156 14.621094 C 32.59375 14.585938 32.714844 14.699219 32.84375 14.875 Z M 32.84375 14.875 "/>
<path style=" stroke:none;fill-rule:nonzero;fill:rgb(50.588238%,50.588238%,50.588238%);fill-opacity:1;" d="M 10.105469 9.992188 C 10.195312 9.976562 10.230469 9.988281 10.324219 10.015625 C 10.21875 10.171875 10.25 10.484375 9.90625 10.535156 C 9.847656 10.335938 9.863281 10.140625 10.105469 9.992188 Z M 10.105469 9.992188 "/>
<path style=" stroke:none;fill-rule:nonzero;fill:rgb(63.137257%,63.137257%,63.137257%);fill-opacity:1;" d="M 34.394531 19.09375 C 34.503906 19.269531 34.597656 19.425781 34.449219 19.492188 C 34.273438 19.566406 34.273438 19.371094 34.238281 19.207031 C 34.230469 19.15625 34.238281 19.152344 34.242188 19.148438 C 34.277344 19.105469 34.3125 19.066406 34.394531 19.09375 Z M 34.394531 19.09375 "/>
<path style=" stroke:none;fill-rule:nonzero;fill:rgb(56.078434%,56.078434%,56.078434%);fill-opacity:1;" d="M 7.84375 29.847656 C 7.882812 29.761719 7.960938 29.71875 8.085938 29.667969 C 8.128906 29.753906 8.125 29.847656 8.101562 29.980469 C 8.011719 29.976562 7.945312 29.933594 7.84375 29.847656 Z M 7.84375 29.847656 "/>
<path style=" stroke:none;fill-rule:nonzero;fill:rgb(51.764709%,51.764709%,51.764709%);fill-opacity:1;" d="M 34.433594 19.09375 C 34.40625 19.15625 34.375 19.15625 34.292969 19.152344 C 34.242188 18.964844 34.238281 18.785156 34.234375 18.539062 C 34.394531 18.628906 34.40625 18.832031 34.433594 19.09375 Z M 34.433594 19.09375 "/>
<path style=" stroke:none;fill-rule:nonzero;fill:rgb(51.764709%,51.764709%,51.764709%);fill-opacity:1;" d="M 34.242188 18.417969 C 34.089844 18.320312 34.066406 18.121094 34.066406 17.851562 C 34.226562 17.949219 34.238281 18.152344 34.242188 18.417969 Z M 34.242188 18.417969 "/>
<path style=" stroke:none;fill-rule:nonzero;fill:rgb(51.764709%,51.764709%,51.764709%);fill-opacity:1;" d="M 11.308594 8.003906 C 11.320312 8.121094 11.25 8.230469 11.0625 8.292969 C 11.09375 8.210938 11.179688 8.117188 11.308594 8.003906 Z M 11.308594 8.003906 "/>
<path style=" stroke:none;fill-rule:nonzero;fill:rgb(50.588238%,50.588238%,50.588238%);fill-opacity:1;" d="M 34.070312 17.746094 C 34.011719 17.667969 33.953125 17.53125 33.898438 17.339844 C 33.953125 17.417969 34.011719 17.554688 34.070312 17.746094 Z M 34.070312 17.746094 "/>
<path style=" stroke:none;fill-rule:nonzero;fill:rgb(67.843139%,67.843139%,67.843139%);fill-opacity:1;" d="M 8.136719 22.207031 C 8.191406 22.261719 8.230469 22.351562 8.261719 22.492188 C 8.101562 22.488281 8.066406 22.386719 8.136719 22.207031 Z M 8.136719 22.207031 "/>
<path style=" stroke:none;fill-rule:nonzero;fill:rgb(50.588238%,50.588238%,50.588238%);fill-opacity:1;" d="M 33.226562 15.882812 C 33.132812 15.859375 33.082031 15.773438 33.1875 15.632812 C 33.21875 15.679688 33.226562 15.753906 33.226562 15.882812 Z M 33.226562 15.882812 "/>
<path style=" stroke:none;fill-rule:nonzero;fill:rgb(50.588238%,50.588238%,50.588238%);fill-opacity:1;" d="M 33.386719 16.222656 C 33.339844 16.191406 33.289062 16.109375 33.226562 15.976562 C 33.273438 16.007812 33.328125 16.089844 33.386719 16.222656 Z M 33.386719 16.222656 "/>
<path style=" stroke:none;fill-rule:nonzero;fill:rgb(50.588238%,50.588238%,50.588238%);fill-opacity:1;" d="M 33.558594 16.5625 C 33.507812 16.53125 33.457031 16.449219 33.394531 16.316406 C 33.445312 16.347656 33.5 16.429688 33.558594 16.5625 Z M 33.558594 16.5625 "/>
<path style=" stroke:none;fill-rule:nonzero;fill:rgb(51.764709%,51.764709%,51.764709%);fill-opacity:1;" d="M 10.816406 8.503906 C 10.816406 8.5625 10.78125 8.652344 10.710938 8.78125 C 10.710938 8.722656 10.746094 8.632812 10.816406 8.503906 Z M 10.816406 8.503906 "/>
<path style=" stroke:none;fill-rule:nonzero;fill:rgb(50.588238%,50.588238%,50.588238%);fill-opacity:1;" d="M 33.726562 16.902344 C 33.679688 16.871094 33.625 16.789062 33.566406 16.65625 C 33.613281 16.6875 33.667969 16.769531 33.726562 16.902344 Z M 33.726562 16.902344 "/>
<path style=" stroke:none;fill-rule:nonzero;fill:rgb(50.588238%,50.588238%,50.588238%);fill-opacity:1;" d="M 33.894531 17.242188 C 33.847656 17.210938 33.792969 17.128906 33.734375 16.996094 C 33.78125 17.027344 33.832031 17.109375 33.894531 17.242188 Z M 33.894531 17.242188 "/>
<path style=" stroke:none;fill-rule:nonzero;fill:rgb(51.764709%,51.764709%,51.764709%);fill-opacity:1;" d="M 10.640625 8.84375 C 10.640625 8.902344 10.609375 8.992188 10.539062 9.121094 C 10.535156 9.0625 10.570312 8.96875 10.640625 8.84375 Z M 10.640625 8.84375 "/>
<path style=" stroke:none;fill-rule:nonzero;fill:rgb(50.588238%,50.588238%,50.588238%);fill-opacity:1;" d="M 10.472656 9.179688 C 10.472656 9.238281 10.4375 9.328125 10.367188 9.457031 C 10.367188 9.402344 10.398438 9.308594 10.472656 9.179688 Z M 10.472656 9.179688 "/>
<path style=" stroke:none;fill-rule:nonzero;fill:rgb(50.588238%,50.588238%,50.588238%);fill-opacity:1;" d="M 10.300781 9.519531 C 10.300781 9.582031 10.265625 9.679688 10.195312 9.816406 C 10.195312 9.757812 10.226562 9.65625 10.300781 9.519531 Z M 10.300781 9.519531 "/>
<path style=" stroke:none;fill-rule:nonzero;fill:rgb(51.764709%,51.764709%,51.764709%);fill-opacity:1;" d="M 10.984375 8.324219 C 10.988281 8.347656 10.953125 8.390625 10.875 8.453125 C 10.871094 8.429688 10.90625 8.386719 10.984375 8.324219 Z M 10.984375 8.324219 "/>
<path style=" stroke:none;fill-rule:nonzero;fill:rgb(64.705884%,64.705884%,64.705884%);fill-opacity:1;" d="M 17.074219 10.253906 C 17.40625 10.214844 17.691406 10.21875 17.832031 9.894531 C 18.289062 8.863281 19.03125 9.15625 19.816406 9.519531 C 19.621094 9.898438 19.898438 10.207031 19.933594 10.566406 C 19.953125 10.589844 19.941406 10.585938 19.925781 10.53125 C 19.898438 10.210938 19.660156 9.964844 19.839844 9.617188 C 21.671875 10.332031 21.886719 11.964844 22.03125 13.613281 C 22.222656 15.820312 21.96875 18.003906 21.574219 20.171875 C 21.554688 20.292969 21.542969 20.386719 21.726562 20.589844 C 22.113281 19.964844 22.125 19.246094 22.414062 18.578125 C 22.648438 17.820312 22.746094 17.09375 22.972656 16.402344 C 23.246094 15.570312 23.652344 15.46875 24.324219 16.011719 C 24.847656 16.433594 25.320312 16.917969 25.902344 17.269531 C 26.644531 17.71875 26.292969 18.402344 26.230469 19.082031 C 25.496094 22.203125 22.191406 24.578125 18.714844 24.429688 C 15.386719 24.289062 13.0625 22.609375 11.65625 19.597656 C 11.269531 18.769531 11.339844 18.035156 11.828125 17.289062 C 12.214844 16.699219 12.558594 16.085938 12.960938 15.445312 C 13.035156 15.394531 13.070312 15.382812 13.152344 15.34375 C 13.253906 15.265625 13.304688 15.210938 13.386719 15.105469 C 13.527344 14.996094 13.640625 14.980469 13.816406 15.039062 C 13.898438 15.101562 13.925781 15.132812 13.96875 15.226562 C 13.988281 16.316406 13.980469 17.347656 13.984375 18.382812 C 13.980469 17.367188 13.984375 16.355469 13.976562 15.277344 C 13.933594 15.128906 13.878906 15.066406 13.746094 14.984375 C 13.628906 14.824219 13.640625 14.699219 13.726562 14.519531 C 14.328125 14.175781 14.449219 13.4375 15.078125 13.132812 C 15.15625 13.046875 15.199219 13 15.265625 12.910156 C 15.308594 12.84375 15.324219 12.816406 15.363281 12.753906 C 15.410156 12.6875 15.425781 12.664062 15.503906 12.574219 C 15.5625 12.507812 15.621094 12.453125 15.675781 12.402344 C 15.730469 12.355469 15.777344 12.304688 15.792969 12.277344 C 15.808594 12.25 15.835938 12.1875 15.839844 12.152344 C 15.839844 12.066406 15.839844 12.011719 15.824219 11.917969 C 15.804688 11.695312 15.667969 11.570312 15.617188 11.351562 C 15.675781 11.210938 15.738281 11.128906 15.847656 11.023438 C 16.003906 10.933594 16.148438 10.9375 16.203125 10.796875 C 16.160156 10.746094 16.160156 10.726562 16.171875 10.726562 C 16.5625 10.769531 16.785156 10.507812 17.074219 10.253906 Z M 17.074219 10.253906 "/>
<path style=" stroke:none;fill-rule:nonzero;fill:rgb(31.764707%,31.764707%,31.764707%);fill-opacity:1;" d="M 26.269531 19.117188 C 26.351562 17.773438 25.480469 17.058594 24.449219 16.4375 C 24.171875 16.269531 23.933594 16.03125 23.628906 15.785156 C 23.246094 16.71875 22.890625 17.589844 22.480469 18.488281 C 22.453125 16.71875 22.835938 14.941406 22.671875 13.0625 C 23.054688 13.222656 23.097656 13.519531 23.210938 13.75 C 23.925781 15.1875 24.855469 16.429688 26.242188 17.300781 C 27.078125 17.824219 26.511719 18.476562 26.269531 19.117188 Z M 26.269531 19.117188 "/>
<path style=" stroke:none;fill-rule:nonzero;fill:rgb(64.313728%,64.313728%,64.313728%);fill-opacity:1;" d="M 20.269531 26.066406 C 20.316406 26.742188 20.511719 27.367188 20.25 28.039062 C 20.148438 28.605469 19.816406 28.898438 19.347656 28.957031 C 19.035156 28.996094 18.859375 28.742188 18.847656 28.34375 C 18.554688 27.378906 18.894531 26.464844 18.726562 25.484375 C 19.425781 25.089844 19.660156 25.179688 20.269531 26.066406 Z M 20.269531 26.066406 "/>
<path style=" stroke:none;fill-rule:nonzero;fill:rgb(62.7451%,62.7451%,62.7451%);fill-opacity:1;" d="M 15.570312 13.1875 C 15.625 13.300781 15.644531 13.378906 15.664062 13.457031 C 14.871094 13.464844 14.746094 14.46875 13.957031 14.574219 C 13.683594 14.421875 13.820312 14.207031 13.785156 13.960938 C 14.261719 12.988281 14.808594 12.113281 15.566406 11.320312 C 15.886719 11.296875 16.164062 11.296875 16.441406 11.296875 C 16.546875 11.628906 16.285156 11.769531 16.121094 12.007812 C 15.980469 12.175781 16.035156 12.328125 15.96875 12.507812 C 15.929688 12.546875 15.929688 12.542969 15.933594 12.539062 C 15.898438 12.578125 15.859375 12.617188 15.789062 12.6875 C 15.761719 12.714844 15.761719 12.710938 15.761719 12.710938 C 15.726562 12.75 15.6875 12.789062 15.617188 12.855469 C 15.589844 12.886719 15.589844 12.878906 15.59375 12.878906 C 15.519531 12.953125 15.503906 13.046875 15.570312 13.1875 Z M 15.570312 13.1875 "/>
<path style=" stroke:none;fill-rule:nonzero;fill:rgb(56.078434%,56.078434%,56.078434%);fill-opacity:1;" d="M 35.878906 38.226562 C 35.792969 38.457031 35.6875 38.613281 35.5625 38.820312 C 35.375 39.082031 35.203125 39.300781 35.035156 39.515625 C 34.679688 38.152344 34.847656 36.890625 35.0625 35.640625 C 35.144531 35.191406 35.289062 35.679688 35.441406 35.714844 C 35.585938 36.082031 35.699219 36.410156 35.796875 36.796875 C 35.914062 37.28125 35.972656 37.714844 35.878906 38.226562 Z M 35.878906 38.226562 "/>
<path style=" stroke:none;fill-rule:nonzero;fill:rgb(31.764707%,31.764707%,31.764707%);fill-opacity:1;" d="M 20.328125 26.054688 C 19.734375 26.0625 19.421875 25.464844 18.777344 25.410156 C 18.535156 24.996094 18.644531 24.761719 19.117188 24.753906 C 19.257812 24.75 19.40625 24.769531 19.535156 24.730469 C 20.441406 24.480469 20.609375 24.875 20.375 25.65625 C 20.34375 25.757812 20.351562 25.875 20.328125 26.054688 Z M 20.328125 26.054688 "/>
<path style=" stroke:none;fill-rule:nonzero;fill:rgb(29.019609%,29.019609%,29.019609%);fill-opacity:1;" d="M 19.144531 32.03125 C 19.171875 32.046875 19.203125 32.0625 19.285156 32.078125 C 19.371094 31.980469 19.4375 31.941406 19.59375 32.007812 C 19.550781 33.097656 19.230469 34.074219 18.769531 35.035156 C 18.5625 34.484375 18.609375 33.929688 18.714844 33.292969 C 18.730469 32.816406 18.882812 32.464844 19.105469 32.078125 C 19.144531 32.035156 19.148438 32.03125 19.144531 32.03125 Z M 19.144531 32.03125 "/>
<path style=" stroke:none;fill-rule:nonzero;fill:rgb(60.784316%,60.784316%,60.784316%);fill-opacity:1;" d="M 7.945312 17.453125 C 8.105469 17.242188 8.308594 16.875 8.320312 17.441406 C 8.335938 18.414062 8.324219 19.386719 8.242188 20.363281 C 7.578125 19.46875 7.601562 18.511719 7.945312 17.453125 Z M 7.945312 17.453125 "/>
<path style=" stroke:none;fill-rule:nonzero;fill:rgb(49.803922%,49.803922%,49.803922%);fill-opacity:1;" d="M 8.195312 37.996094 C 7.535156 36.980469 7.640625 35.941406 8.050781 34.761719 C 8.332031 35.917969 8.386719 36.949219 8.195312 37.996094 Z M 8.195312 37.996094 "/>
<path style=" stroke:none;fill-rule:nonzero;fill:rgb(56.078434%,56.078434%,56.078434%);fill-opacity:1;" d="M 34.082031 24.761719 C 34.09375 24.480469 33.71875 24.265625 33.984375 24.101562 C 34.230469 23.949219 34.410156 24.191406 34.582031 24.398438 C 35.074219 25 35.019531 25.539062 34.445312 26.113281 C 34.15625 25.707031 34.246094 25.230469 34.082031 24.761719 Z M 34.082031 24.761719 "/>
<path style=" stroke:none;fill-rule:nonzero;fill:rgb(21.960784%,21.960784%,21.960784%);fill-opacity:1;" d="M 24.8125 33.832031 C 24.5625 34.191406 24.566406 34.636719 24.160156 34.90625 C 23.839844 33.917969 24.625 33.386719 25.171875 32.699219 C 25.175781 32.929688 25.128906 33.191406 25.082031 33.515625 C 25 33.652344 24.925781 33.722656 24.8125 33.832031 Z M 24.8125 33.832031 "/>
<path style=" stroke:none;fill-rule:nonzero;fill:rgb(56.078434%,56.078434%,56.078434%);fill-opacity:1;" d="M 28.164062 7.429688 C 27.808594 6.988281 27.484375 6.589844 27.039062 6.039062 C 27.941406 6.273438 28.316406 6.78125 28.585938 7.398438 C 28.625 7.496094 28.699219 7.703125 28.503906 7.722656 C 28.414062 7.730469 28.304688 7.566406 28.164062 7.429688 Z M 28.164062 7.429688 "/>
<path style=" stroke:none;fill-rule:nonzero;fill:rgb(8.627451%,8.627451%,8.627451%);fill-opacity:1;" d="M 18.800781 28.3125 C 19.355469 29.238281 19.738281 28.601562 20.183594 28.128906 C 20.273438 28.101562 20.320312 28.109375 20.4375 28.125 C 20.511719 28.167969 20.511719 28.195312 20.507812 28.269531 C 20.347656 28.476562 20.195312 28.640625 20.035156 28.796875 C 19.351562 29.460938 19.21875 29.441406 18.664062 28.523438 C 18.695312 28.425781 18.734375 28.386719 18.800781 28.3125 Z M 18.800781 28.3125 "/>
<path style=" stroke:none;fill-rule:nonzero;fill:rgb(67.843139%,67.843139%,67.843139%);fill-opacity:1;" d="M 34.734375 26.839844 C 35.542969 27.144531 35.15625 27.851562 35.246094 28.496094 C 34.835938 28.089844 34.597656 27.546875 34.734375 26.839844 Z M 34.734375 26.839844 "/>
<path style=" stroke:none;fill-rule:nonzero;fill:rgb(21.960784%,21.960784%,21.960784%);fill-opacity:1;" d="M 23.53125 37.25 C 23.398438 37.507812 23.261719 37.703125 23.085938 37.933594 C 23.003906 37.550781 23.144531 37.121094 22.914062 36.660156 C 22.929688 36.394531 23.039062 36.25 23.28125 36.304688 C 23.445312 36.34375 23.464844 36.476562 23.472656 36.621094 C 23.480469 36.8125 23.511719 37.003906 23.53125 37.25 Z M 23.53125 37.25 "/>
<path style=" stroke:none;fill-rule:nonzero;fill:rgb(64.313728%,64.313728%,64.313728%);fill-opacity:1;" d="M 13.726562 13.953125 C 13.808594 14.089844 13.851562 14.277344 13.898438 14.519531 C 13.855469 14.652344 13.8125 14.726562 13.746094 14.835938 C 13.753906 14.921875 13.789062 14.976562 13.730469 15.058594 C 13.601562 15.128906 13.5625 15.171875 13.496094 15.230469 C 13.4375 15.265625 13.402344 15.28125 13.308594 15.308594 C 13.21875 15.308594 13.183594 15.289062 13.121094 15.214844 C 13.292969 14.777344 13.492188 14.386719 13.726562 13.953125 Z M 13.726562 13.953125 "/>
<path style=" stroke:none;fill-rule:nonzero;fill:rgb(8.627451%,8.627451%,8.627451%);fill-opacity:1;" d="M 19.085938 32.039062 C 19.214844 32.460938 18.949219 32.78125 18.761719 33.179688 C 18.6875 33.21875 18.648438 33.222656 18.546875 33.222656 C 18.570312 32.785156 18.671875 32.359375 19.085938 32.039062 Z M 19.085938 32.039062 "/>
<path style=" stroke:none;fill-rule:nonzero;fill:rgb(62.7451%,62.7451%,62.7451%);fill-opacity:1;" d="M 17.066406 10.214844 C 17.011719 10.640625 16.800781 10.914062 16.246094 10.746094 C 16.410156 10.476562 16.703125 10.335938 17.066406 10.214844 Z M 17.066406 10.214844 "/>
<path style=" stroke:none;fill-rule:nonzero;fill:rgb(8.627451%,8.627451%,8.627451%);fill-opacity:1;" d="M 19.660156 32.015625 C 19.578125 32.058594 19.507812 32.0625 19.390625 32.074219 C 19.382812 31.949219 19.4375 31.808594 19.59375 31.800781 C 19.699219 31.792969 19.6875 31.898438 19.660156 32.015625 Z M 19.660156 32.015625 "/>
<path style=" stroke:none;fill-rule:nonzero;fill:rgb(62.7451%,62.7451%,62.7451%);fill-opacity:1;" d="M 16.117188 10.765625 C 16.101562 10.824219 16.046875 10.898438 15.941406 10.988281 C 15.953125 10.929688 16.011719 10.855469 16.117188 10.765625 Z M 16.117188 10.765625 "/>
<path style=" stroke:none;fill-rule:nonzero;fill:rgb(8.627451%,8.627451%,8.627451%);fill-opacity:1;" d="M 20.507812 28.132812 C 20.507812 28.132812 20.535156 28.097656 20.535156 28.097656 C 20.535156 28.097656 20.53125 28.125 20.523438 28.132812 C 20.511719 28.136719 20.507812 28.136719 20.507812 28.132812 Z M 20.507812 28.132812 "/>
<path style=" stroke:none;fill-rule:nonzero;fill:rgb(64.313728%,64.313728%,64.313728%);fill-opacity:1;" d="M 13.210938 15.402344 C 13.160156 15.433594 13.078125 15.417969 13.039062 15.414062 C 13.011719 15.347656 13.023438 15.292969 13.0625 15.199219 C 13.089844 15.164062 13.15625 15.207031 13.1875 15.230469 C 13.234375 15.292969 13.25 15.332031 13.210938 15.402344 Z M 13.210938 15.402344 "/>
<path style=" stroke:none;fill-rule:nonzero;fill:rgb(51.764709%,51.764709%,51.764709%);fill-opacity:1;" d="M 16.441406 38.761719 C 16.019531 38.59375 16.144531 38.097656 15.917969 37.699219 C 15.792969 37.355469 15.683594 37.070312 15.566406 36.726562 C 15.539062 36.621094 15.519531 36.574219 15.574219 36.550781 C 16.148438 37.195312 16.332031 37.929688 16.441406 38.761719 Z M 16.441406 38.761719 "/>
<path style=" stroke:none;fill-rule:nonzero;fill:rgb(50.588238%,50.588238%,50.588238%);fill-opacity:1;" d="M 15.105469 35.441406 C 14.816406 34.9375 14.921875 34.425781 15.054688 33.90625 C 15.351562 34.277344 15.191406 34.71875 15.230469 35.199219 C 15.195312 35.324219 15.171875 35.378906 15.105469 35.441406 Z M 15.105469 35.441406 "/>
<path style=" stroke:none;fill-rule:nonzero;fill:rgb(56.078434%,56.078434%,56.078434%);fill-opacity:1;" d="M 15.0625 35.496094 C 15.09375 35.40625 15.128906 35.367188 15.195312 35.300781 C 15.210938 35.433594 15.363281 35.617188 15.152344 35.746094 C 15.125 35.679688 15.09375 35.613281 15.0625 35.496094 Z M 15.0625 35.496094 "/>
<path style=" stroke:none;fill-rule:nonzero;fill:rgb(56.078434%,56.078434%,56.078434%);fill-opacity:1;" d="M 15.402344 36.230469 C 15.507812 36.320312 15.558594 36.402344 15.628906 36.535156 C 15.648438 36.582031 15.601562 36.621094 15.578125 36.648438 C 15.503906 36.589844 15.449219 36.503906 15.378906 36.371094 C 15.363281 36.289062 15.359375 36.253906 15.402344 36.230469 Z M 15.402344 36.230469 "/>
<path style=" stroke:none;fill-rule:nonzero;fill:rgb(56.078434%,56.078434%,56.078434%);fill-opacity:1;" d="M 15.390625 36.300781 C 15.328125 36.257812 15.234375 36.175781 15.433594 36.210938 C 15.453125 36.238281 15.410156 36.28125 15.390625 36.300781 Z M 15.390625 36.300781 "/>
<path style=" stroke:none;fill-rule:nonzero;fill:rgb(51.764709%,51.764709%,51.764709%);fill-opacity:1;" d="M 26.128906 36.597656 C 26.09375 36.09375 26.078125 35.636719 26.082031 35.128906 C 26.414062 35.542969 26.269531 36.117188 26.433594 36.71875 C 26.273438 36.832031 26.199219 36.757812 26.128906 36.597656 Z M 26.128906 36.597656 "/>
<path style=" stroke:none;fill-rule:nonzero;fill:rgb(49.803922%,49.803922%,49.803922%);fill-opacity:1;" d="M 26.183594 38.535156 C 26.164062 38.390625 26.199219 38.300781 26.246094 38.164062 C 26.238281 37.871094 26.273438 37.625 26.339844 37.328125 C 26.441406 37.226562 26.519531 37.207031 26.65625 37.246094 C 26.773438 37.695312 26.625 38.054688 26.398438 38.449219 C 26.320312 38.527344 26.277344 38.558594 26.183594 38.535156 Z M 26.183594 38.535156 "/>
<path style=" stroke:none;fill-rule:nonzero;fill:rgb(51.764709%,51.764709%,51.764709%);fill-opacity:1;" d="M 26.113281 38.539062 C 26.167969 38.480469 26.207031 38.484375 26.300781 38.488281 C 26.304688 38.839844 26.246094 39.1875 26.148438 39.578125 C 25.8125 39.285156 25.984375 38.941406 26.113281 38.539062 Z M 26.113281 38.539062 "/>
<path style=" stroke:none;fill-rule:nonzero;fill:rgb(51.764709%,51.764709%,51.764709%);fill-opacity:1;" d="M 25.710938 34.695312 C 25.71875 34.746094 25.722656 34.785156 25.734375 34.800781 C 25.726562 34.871094 25.707031 34.925781 25.621094 34.921875 C 25.511719 34.742188 25.46875 34.621094 25.425781 34.453125 C 25.59375 34.398438 25.667969 34.5 25.710938 34.695312 Z M 25.710938 34.695312 "/>
<path style=" stroke:none;fill-rule:nonzero;fill:rgb(51.764709%,51.764709%,51.764709%);fill-opacity:1;" d="M 26.710938 37.230469 C 26.664062 37.28125 26.621094 37.28125 26.542969 37.285156 C 26.351562 37.25 26.3125 37.132812 26.320312 36.925781 C 26.359375 36.84375 26.382812 36.824219 26.445312 36.777344 C 26.558594 36.890625 26.632812 37.039062 26.710938 37.230469 Z M 26.710938 37.230469 "/>
<path style=" stroke:none;fill-rule:nonzero;fill:rgb(51.764709%,51.764709%,51.764709%);fill-opacity:1;" d="M 24.824219 33.878906 C 24.769531 33.722656 24.816406 33.605469 25.03125 33.582031 C 25.085938 33.652344 25.089844 33.722656 25.089844 33.847656 C 25.019531 33.898438 24.949219 33.894531 24.824219 33.878906 Z M 24.824219 33.878906 "/>
<path style=" stroke:none;fill-rule:nonzero;fill:rgb(51.764709%,51.764709%,51.764709%);fill-opacity:1;" d="M 25.261719 34.1875 C 25.195312 34.160156 25.136719 34.078125 25.078125 33.945312 C 25.144531 33.976562 25.207031 34.054688 25.261719 34.1875 Z M 25.261719 34.1875 "/>
<path style=" stroke:none;fill-rule:nonzero;fill:rgb(51.764709%,51.764709%,51.764709%);fill-opacity:1;" d="M 25.417969 34.359375 C 25.375 34.378906 25.328125 34.347656 25.265625 34.277344 C 25.304688 34.261719 25.359375 34.289062 25.417969 34.359375 Z M 25.417969 34.359375 "/>
<path style=" stroke:none;fill-rule:nonzero;fill:rgb(21.960784%,21.960784%,21.960784%);fill-opacity:1;" d="M 26.308594 36.820312 C 26.378906 36.96875 26.417969 37.074219 26.484375 37.234375 C 26.441406 37.523438 26.375 37.765625 26.28125 38.0625 C 25.996094 37.667969 26.140625 37.175781 26.105469 36.625 C 26.167969 36.625 26.226562 36.703125 26.308594 36.820312 Z M 26.308594 36.820312 "/>
<path style=" stroke:none;fill-rule:nonzero;fill:rgb(31.764707%,31.764707%,31.764707%);fill-opacity:1;" d="M 25.582031 34.882812 C 25.589844 34.851562 25.617188 34.839844 25.699219 34.820312 C 25.703125 34.84375 25.65625 34.871094 25.582031 34.882812 Z M 25.582031 34.882812 "/>
<path style=" stroke:none;fill-rule:nonzero;fill:rgb(60.784316%,60.784316%,60.784316%);fill-opacity:1;" d="M 35.925781 38.238281 C 35.671875 37.886719 35.785156 37.441406 35.773438 36.929688 C 36.128906 37.257812 36.042969 37.71875 35.925781 38.238281 Z M 35.925781 38.238281 "/>
<path style=" stroke:none;fill-rule:nonzero;fill:rgb(49.803922%,49.803922%,49.803922%);fill-opacity:1;" d="M 13.898438 15.164062 C 14.292969 16.328125 13.964844 17.585938 13.902344 18.835938 C 13.902344 17.640625 13.902344 16.441406 13.898438 15.164062 Z M 13.898438 15.164062 "/>
<path style=" stroke:none;fill-rule:nonzero;fill:rgb(51.764709%,51.764709%,51.764709%);fill-opacity:1;" d="M 20.367188 13.128906 C 20.292969 12.652344 20.234375 12.242188 20.171875 11.828125 C 20.519531 12.445312 20.644531 13.101562 20.550781 13.8125 C 20.492188 13.605469 20.433594 13.398438 20.367188 13.128906 Z M 20.367188 13.128906 "/>
<path style=" stroke:none;fill-rule:nonzero;fill:rgb(51.764709%,51.764709%,51.764709%);fill-opacity:1;" d="M 19.996094 10.613281 C 19.742188 10.382812 19.570312 10.066406 19.824219 9.613281 C 19.859375 9.558594 19.859375 9.574219 19.859375 9.566406 C 19.910156 9.886719 19.957031 10.210938 19.996094 10.613281 Z M 19.996094 10.613281 "/>
<path style=" stroke:none;fill-rule:nonzero;fill:rgb(51.764709%,51.764709%,51.764709%);fill-opacity:1;" d="M 20.003906 10.675781 C 20.054688 10.792969 20.101562 10.910156 20.136719 11.03125 C 20.140625 11.042969 20.078125 11.070312 20.046875 11.089844 C 20.027344 10.988281 20.007812 10.886719 19.988281 10.738281 C 19.988281 10.691406 19.996094 10.679688 20.003906 10.675781 Z M 20.003906 10.675781 "/>
<path style=" stroke:none;fill-rule:nonzero;fill:rgb(50.588238%,50.588238%,50.588238%);fill-opacity:1;" d="M 15.96875 12.542969 C 15.960938 12.40625 15.988281 12.269531 16.046875 12.089844 C 16.089844 12.121094 16.097656 12.191406 16.105469 12.320312 C 16.125 12.40625 16.144531 12.4375 16.121094 12.5 C 16.078125 12.535156 16.003906 12.542969 15.96875 12.542969 Z M 15.96875 12.542969 "/>
<path style=" stroke:none;fill-rule:nonzero;fill:rgb(50.588238%,50.588238%,50.588238%);fill-opacity:1;" d="M 15.605469 13.164062 C 15.492188 13.148438 15.460938 13.054688 15.570312 12.90625 C 15.601562 12.953125 15.605469 13.03125 15.605469 13.164062 Z M 15.605469 13.164062 "/>
<path style=" stroke:none;fill-rule:nonzero;fill:rgb(50.588238%,50.588238%,50.588238%);fill-opacity:1;" d="M 15.625 12.867188 C 15.617188 12.835938 15.652344 12.792969 15.730469 12.734375 C 15.730469 12.753906 15.699219 12.800781 15.625 12.867188 Z M 15.625 12.867188 "/>
<path style=" stroke:none;fill-rule:nonzero;fill:rgb(50.588238%,50.588238%,50.588238%);fill-opacity:1;" d="M 15.796875 12.695312 C 15.785156 12.664062 15.820312 12.617188 15.898438 12.5625 C 15.902344 12.585938 15.871094 12.628906 15.796875 12.695312 Z M 15.796875 12.695312 "/>
<path style=" stroke:none;fill-rule:nonzero;fill:rgb(62.7451%,62.7451%,62.7451%);fill-opacity:1;" d="M 16.097656 12.519531 C 16.078125 12.535156 16.089844 12.453125 16.097656 12.414062 C 16.140625 12.417969 16.144531 12.460938 16.097656 12.519531 Z M 16.097656 12.519531 "/>
<path style=" stroke:none;fill-rule:nonzero;fill:rgb(49.803922%,49.803922%,49.803922%);fill-opacity:1;" d="M 13.21875 15.414062 C 13.171875 15.402344 13.183594 15.375 13.207031 15.300781 C 13.261719 15.253906 13.304688 15.25 13.410156 15.25 C 13.410156 15.300781 13.34375 15.351562 13.21875 15.414062 Z M 13.21875 15.414062 "/>
<path style=" stroke:none;fill-rule:nonzero;fill:rgb(49.803922%,49.803922%,49.803922%);fill-opacity:1;" d="M 13.710938 15.085938 C 13.660156 15.050781 13.671875 15.015625 13.703125 14.925781 C 13.769531 14.914062 13.8125 14.957031 13.875 15.046875 C 13.894531 15.085938 13.898438 15.085938 13.898438 15.082031 C 13.859375 15.082031 13.816406 15.085938 13.710938 15.085938 Z M 13.710938 15.085938 "/>
</g>
</svg>
