<?xml version="1.0" encoding="UTF-8"?>
<svg xmlns="http://www.w3.org/2000/svg" xmlns:xlink="http://www.w3.org/1999/xlink" width="63px" height="63px" viewBox="0 0 63 63" version="1.1">
<g id="surface1">
<path style=" stroke:none;fill-rule:nonzero;fill:rgb(0%,0%,0%);fill-opacity:1;" d="M 21.378906 4.816406 C 22.773438 7.367188 24.511719 9.613281 26.609375 11.578125 C 27.015625 11.960938 27.476562 12.273438 27.949219 12.566406 C 29.71875 13.660156 30.8125 15.25 31.472656 17.195312 C 32.003906 18.757812 32.179688 20.386719 32.472656 21.996094 C 32.789062 23.742188 33.371094 25.386719 34.574219 26.746094 C 35.214844 27.476562 35.960938 28.054688 36.890625 28.378906 C 36.996094 28.414062 37.109375 28.429688 37.203125 28.554688 C 37.035156 28.667969 36.882812 28.585938 36.734375 28.539062 C 34.984375 28.011719 33.796875 26.863281 33.003906 25.246094 C 32.28125 23.785156 31.941406 22.21875 31.644531 20.632812 C 31.214844 18.347656 30.496094 16.1875 28.910156 14.410156 C 28.324219 13.753906 27.636719 13.21875 26.882812 12.78125 C 25.175781 11.796875 23.785156 10.464844 22.550781 8.949219 C 22.4375 8.808594 22.359375 8.625 22.011719 8.605469 C 22.425781 10.570312 23.574219 12.0625 24.753906 13.542969 C 24.625 13.707031 24.460938 13.6875 24.316406 13.671875 C 21.9375 13.414062 19.871094 12.492188 18.160156 10.800781 C 18.027344 10.671875 17.933594 10.472656 17.621094 10.441406 C 18.324219 12.5625 19.125 14.546875 20.96875 15.964844 C 19.644531 15.722656 18.324219 15.480469 16.972656 15.234375 C 16.941406 15.554688 17.136719 15.683594 17.273438 15.824219 C 18.253906 16.859375 19.410156 17.664062 20.628906 18.382812 C 21.09375 18.65625 21.625 18.828125 21.949219 19.402344 C 21.714844 20.152344 21.121094 20.664062 20.34375 20.992188 C 19.917969 21.167969 19.476562 21.269531 19.011719 21.261719 C 18.867188 21.257812 18.703125 21.246094 18.632812 21.398438 C 18.550781 21.578125 18.695312 21.695312 18.804688 21.800781 C 19.449219 22.394531 20.246094 22.703125 21.054688 22.996094 C 21.335938 23.101562 21.648438 23.121094 21.898438 23.375 C 21.339844 23.375 20.777344 23.417969 20.222656 23.367188 C 19.167969 23.269531 18.148438 23.007812 17.195312 22.527344 C 15.589844 21.71875 14.675781 20.394531 14.296875 18.667969 C 14.265625 18.523438 14.21875 18.363281 14.324219 18.21875 C 14.46875 18.21875 14.523438 18.335938 14.589844 18.414062 C 15.339844 19.300781 16.316406 19.703125 17.441406 19.765625 C 18.558594 19.828125 19.667969 19.78125 20.753906 19.492188 C 20.863281 19.460938 20.972656 19.425781 21.078125 19.386719 C 21.113281 19.371094 21.136719 19.328125 21.167969 19.292969 C 21.089844 19.097656 20.910156 19.066406 20.75 19.046875 C 18.109375 18.742188 16.296875 17.230469 14.941406 15.0625 C 14.355469 14.125 13.921875 13.121094 13.621094 12.054688 C 13.609375 12.007812 13.613281 11.949219 13.601562 11.800781 C 14.46875 12.574219 15.375 13.148438 16.320312 13.65625 C 17.253906 14.152344 18.179688 14.664062 19.238281 14.980469 C 16.320312 12.308594 15.25 9.027344 15.761719 5.132812 C 16.042969 5.242188 16.105469 5.429688 16.199219 5.578125 C 17.527344 7.617188 19.015625 9.523438 20.824219 11.167969 C 21.414062 11.703125 22.058594 12.179688 22.730469 12.613281 C 22.839844 12.683594 22.960938 12.792969 23.167969 12.640625 C 20.753906 9.992188 20.082031 6.859375 20.558594 3.421875 C 20.609375 3.40625 20.65625 3.386719 20.707031 3.371094 C 20.925781 3.84375 21.144531 4.316406 21.378906 4.816406 Z M 21.378906 4.816406 "/>
<path style=" stroke:none;fill-rule:nonzero;fill:rgb(0%,0%,0%);fill-opacity:1;" d="M 48.207031 53.25 C 48.890625 55.777344 46.90625 58.246094 45.617188 58.878906 C 45.628906 58.636719 45.78125 58.480469 45.886719 58.308594 C 46.988281 56.46875 47.496094 54.519531 47.058594 52.375 C 46.894531 51.582031 46.535156 50.871094 46.179688 50.15625 C 46.101562 49.996094 45.949219 49.960938 45.796875 49.917969 C 44.65625 49.578125 43.496094 49.636719 42.371094 49.914062 C 39.707031 50.566406 37.398438 51.9375 35.273438 53.636719 C 33.777344 54.835938 32.210938 55.90625 30.339844 56.46875 C 28.421875 57.042969 26.523438 57.023438 24.632812 56.359375 C 23.863281 56.089844 23.125 55.765625 22.449219 55.296875 C 20.84375 54.179688 20.101562 52.609375 19.988281 50.691406 C 19.851562 48.363281 20.367188 46.164062 21.269531 44.042969 C 22 42.335938 23.15625 40.925781 24.515625 39.6875 C 25.789062 38.527344 27.234375 37.609375 28.753906 36.816406 C 29.378906 36.488281 30.027344 36.195312 30.828125 36.269531 C 30.710938 36.464844 30.554688 36.523438 30.410156 36.589844 C 26 38.707031 23.246094 42.214844 21.910156 46.859375 C 21.507812 48.25 21.484375 49.699219 21.710938 51.140625 C 21.925781 52.527344 22.832031 53.410156 23.902344 54.164062 C 25.929688 55.59375 28.128906 55.632812 30.402344 54.9375 C 32.144531 54.40625 33.734375 53.542969 35.292969 52.613281 C 36.871094 51.671875 38.4375 50.710938 40.175781 50.066406 C 41.59375 49.542969 43.046875 49.269531 44.558594 49.238281 C 45.136719 49.226562 45.683594 49.355469 46.238281 49.464844 C 46.410156 49.5 46.554688 49.492188 46.730469 49.449219 C 47.316406 49.304688 47.894531 49.457031 48.453125 49.601562 C 50.796875 50.199219 52.222656 51.730469 52.863281 54.035156 C 53.023438 54.609375 53.101562 55.195312 53.050781 55.808594 C 52.6875 54.621094 52.15625 53.53125 51.347656 52.59375 C 50.546875 51.664062 49.625 50.90625 48.46875 50.453125 C 48.597656 50.8125 48.890625 51.015625 49.136719 51.253906 C 49.980469 52.082031 50.71875 52.980469 51.039062 54.148438 C 51.378906 55.371094 51.042969 56.464844 50.339844 57.457031 C 49.738281 58.308594 48.917969 58.929688 48.039062 59.476562 C 47.96875 59.523438 47.890625 59.566406 47.777344 59.472656 C 47.894531 59.222656 48.160156 59.113281 48.324219 58.90625 C 49.144531 57.890625 49.476562 56.691406 49.609375 55.429688 C 49.667969 54.863281 49.644531 54.292969 49.574219 53.722656 C 49.382812 52.164062 48.378906 51.222656 47.128906 50.464844 C 47.039062 50.40625 46.929688 50.335938 46.75 50.488281 C 47.351562 51.324219 47.96875 52.175781 48.207031 53.25 Z M 48.207031 53.25 "/>
<path style=" stroke:none;fill-rule:nonzero;fill:rgb(0%,0%,0%);fill-opacity:1;" d="M 48.691406 21.816406 C 48.398438 22.175781 47.96875 22.363281 47.785156 22.800781 C 49.320312 22.171875 50.707031 21.300781 51.96875 20.207031 C 52.21875 20.875 51.421875 22.894531 50.464844 24.140625 C 49.578125 25.296875 48.429688 26.140625 47.222656 26.941406 C 48.609375 26.652344 49.863281 26.023438 51.152344 25.417969 C 51.046875 27.160156 47.421875 29.933594 45.441406 29.835938 C 45.648438 29.542969 45.964844 29.429688 46.238281 29.273438 C 46.769531 28.964844 47.261719 28.601562 47.734375 28.214844 C 47.851562 28.121094 48.046875 28.042969 47.960938 27.851562 C 47.878906 27.675781 47.707031 27.785156 47.574219 27.792969 C 46.980469 27.820312 46.382812 27.90625 45.792969 27.722656 C 45.71875 27.453125 45.832031 27.289062 46.035156 27.140625 C 47.269531 26.234375 48.402344 25.21875 49.34375 24.007812 C 49.464844 23.851562 49.671875 23.714844 49.570312 23.402344 C 48.4375 23.648438 47.3125 24.007812 46.007812 23.914062 C 46.46875 23.339844 46.851562 22.867188 47.226562 22.390625 C 48.316406 21 49.40625 19.605469 50.179688 18 C 50.246094 17.863281 50.375 17.722656 50.242188 17.570312 C 50.082031 17.398438 49.929688 17.5625 49.777344 17.621094 C 48.796875 18.003906 47.8125 18.378906 46.785156 18.636719 C 46.617188 18.679688 46.453125 18.714844 46.265625 18.628906 C 46.222656 18.402344 46.367188 18.230469 46.472656 18.058594 C 47.265625 16.703125 47.964844 15.300781 48.601562 13.867188 C 48.796875 13.4375 48.9375 12.988281 49.070312 12.539062 C 49.109375 12.402344 49.171875 12.265625 49.050781 12.140625 C 48.917969 12.074219 48.824219 12.152344 48.742188 12.230469 C 47 13.871094 45.351562 15.59375 44.515625 17.898438 C 44.070312 19.117188 43.90625 20.414062 43.59375 21.671875 C 43.140625 23.492188 42.613281 25.28125 41.507812 26.832031 C 41.335938 27.078125 41.195312 27.367188 40.800781 27.539062 C 41.019531 27.113281 41.195312 26.765625 41.371094 26.421875 C 42.199219 24.8125 42.726562 23.121094 43.003906 21.324219 C 43.1875 20.144531 43.238281 18.945312 43.566406 17.785156 C 43.929688 16.496094 44.488281 15.308594 45.191406 14.175781 C 45.980469 12.90625 46.988281 11.828125 48.054688 10.792969 C 48.660156 10.203125 49.042969 9.4375 49.488281 8.722656 C 50.113281 7.714844 50.703125 6.6875 50.859375 5.480469 C 50.863281 5.445312 50.902344 5.414062 50.984375 5.398438 C 52.085938 10.058594 50.46875 13.972656 47.585938 17.570312 C 48.660156 17.070312 49.5625 16.359375 50.449219 15.621094 C 51.347656 14.875 52.136719 14.023438 52.800781 12.941406 C 52.984375 13.4375 52.941406 13.851562 52.894531 14.246094 C 52.636719 16.585938 51.5625 18.550781 50.082031 20.324219 C 49.652344 20.835938 49.207031 21.335938 48.691406 21.816406 Z M 48.691406 21.816406 "/>
<path style=" stroke:none;fill-rule:nonzero;fill:rgb(0%,0%,0%);fill-opacity:1;" d="M 24.617188 48.40625 C 24.226562 45.597656 24.574219 42.957031 26.113281 40.566406 C 27.324219 38.679688 29.117188 37.519531 31.199219 36.777344 C 32.824219 36.203125 34.449219 35.628906 35.933594 34.722656 C 37.972656 33.472656 39.214844 31.667969 39.820312 29.367188 C 40.230469 27.796875 40.464844 26.210938 40.460938 24.597656 C 40.457031 23.421875 40.320312 22.265625 39.695312 21.21875 C 39.3125 20.578125 38.832031 20.054688 38.160156 19.71875 C 38.019531 19.648438 37.882812 19.558594 37.675781 19.730469 C 39.359375 22.347656 38.738281 24.957031 37.59375 27.554688 C 37.445312 27.359375 37.566406 27.191406 37.640625 27.027344 C 38.113281 25.933594 38.320312 24.796875 38.265625 23.609375 C 38.179688 21.808594 37.28125 20.5 35.816406 19.523438 C 35.367188 19.222656 34.875 19.019531 34.386719 18.792969 C 34.414062 18.742188 34.429688 18.699219 34.441406 18.699219 C 35.121094 18.78125 35.753906 18.648438 36.398438 18.410156 C 37.386719 18.039062 38.335938 18.273438 39.226562 18.78125 C 39.4375 18.902344 39.636719 19.042969 39.886719 19.058594 C 40.214844 19.078125 40.421875 18.902344 40.554688 18.621094 C 40.71875 18.28125 40.484375 18.046875 40.304688 17.820312 C 40.105469 17.574219 39.875 17.71875 39.664062 17.871094 C 39.457031 17.667969 39.554688 17.53125 39.730469 17.425781 C 39.960938 17.296875 40.199219 17.324219 40.429688 17.425781 C 40.878906 17.621094 41.136719 18.089844 41.109375 18.652344 C 41.078125 19.296875 40.816406 19.699219 40.25 19.832031 C 39.859375 19.925781 39.773438 20.074219 39.96875 20.417969 C 40.6875 21.703125 40.886719 23.113281 40.835938 24.550781 C 40.757812 26.652344 40.429688 28.714844 39.660156 30.691406 C 38.730469 33.0625 37.066406 34.707031 34.753906 35.726562 C 33.242188 36.394531 31.632812 36.816406 30.167969 37.597656 C 27.601562 38.964844 26.109375 41.089844 25.621094 43.953125 C 25.359375 45.476562 25.417969 46.992188 25.714844 48.496094 C 25.921875 49.5625 26.429688 50.511719 27.566406 50.796875 C 28.460938 51.023438 29.335938 50.742188 30.011719 50.101562 C 30.644531 49.5 30.546875 48.742188 30.292969 47.984375 C 30.246094 47.847656 30.105469 47.726562 30.226562 47.496094 C 30.789062 48.144531 31.046875 48.871094 30.90625 49.671875 C 30.566406 51.613281 27.683594 52.695312 26.152344 51.453125 C 25.207031 50.6875 24.792969 49.617188 24.617188 48.40625 Z M 24.617188 48.40625 "/>
<path style=" stroke:none;fill-rule:nonzero;fill:rgb(0%,0%,0%);fill-opacity:1;" d="M 8.523438 52.148438 C 8.855469 53.261719 9.613281 53.6875 10.78125 53.433594 C 12.511719 53.058594 13.757812 51.988281 14.757812 50.597656 C 15.8125 49.132812 16.554688 47.496094 17.265625 45.84375 C 17.582031 45.113281 17.855469 44.363281 18.1875 43.636719 C 19.257812 41.308594 21.125 39.757812 23.28125 38.5 C 24.601562 37.730469 26.015625 37.15625 27.453125 36.644531 C 27.589844 36.59375 27.738281 36.507812 27.898438 36.585938 C 27.886719 36.746094 27.746094 36.75 27.652344 36.785156 C 25.066406 37.808594 22.894531 39.472656 20.8125 41.253906 C 19.972656 41.972656 19.46875 42.964844 18.9375 43.933594 C 17.914062 45.8125 17.304688 47.878906 16.242188 49.738281 C 15.277344 51.421875 13.988281 52.816406 12.410156 53.9375 C 11.578125 54.523438 10.65625 54.804688 9.621094 54.550781 C 8.6875 54.320312 7.773438 53.097656 7.785156 52.0625 C 7.796875 51.164062 8.542969 50.28125 9.523438 50.089844 C 8.851562 50.605469 8.347656 51.199219 8.523438 52.148438 Z M 8.523438 52.148438 "/>
<path style=" stroke:none;fill-rule:nonzero;fill:rgb(0%,0%,0%);fill-opacity:1;" d="M 32.316406 29.222656 C 31.066406 28.679688 30.082031 27.859375 29.328125 26.761719 C 29.214844 26.597656 29.097656 26.445312 28.921875 26.332031 C 27.199219 25.226562 26.183594 23.589844 25.5 21.710938 C 25.414062 21.472656 25.238281 21.242188 25.328125 20.9375 C 25.527344 21.015625 25.519531 21.195312 25.582031 21.328125 C 26.0625 22.328125 26.726562 23.164062 27.695312 23.730469 C 28.125 23.980469 28.316406 23.882812 28.300781 23.394531 C 28.222656 20.863281 27.519531 18.566406 25.695312 16.714844 C 25.40625 16.425781 25.101562 16.140625 24.738281 15.933594 C 24.660156 15.890625 24.539062 15.867188 24.574219 15.65625 C 25.171875 15.871094 25.726562 16.132812 26.246094 16.464844 C 27.941406 17.542969 28.847656 19.171875 29.425781 21.027344 C 29.804688 22.246094 29.941406 23.507812 30.15625 24.753906 C 30.464844 26.527344 31.132812 28.117188 32.667969 29.207031 C 32.6875 29.222656 32.691406 29.257812 32.714844 29.308594 C 32.566406 29.402344 32.460938 29.28125 32.316406 29.222656 Z M 32.316406 29.222656 "/>
<path style=" stroke:none;fill-rule:nonzero;fill:rgb(0%,0%,0%);fill-opacity:1;" d="M 23.871094 27.5 C 21.8125 27.546875 19.84375 27.3125 17.976562 26.496094 C 17.074219 26.101562 16.300781 25.527344 15.664062 24.773438 C 15.558594 24.644531 15.453125 24.507812 15.421875 24.242188 C 17.800781 25.441406 20.066406 24.789062 22.351562 23.898438 C 22.375 24.363281 22.113281 24.617188 21.871094 24.859375 C 21.589844 25.144531 21.246094 25.355469 20.878906 25.523438 C 20.726562 25.589844 20.519531 25.636719 20.519531 25.84375 C 20.519531 26.066406 20.734375 26.125 20.898438 26.199219 C 21.820312 26.628906 22.785156 26.917969 23.78125 27.117188 C 24.03125 27.167969 24.273438 27.246094 24.570312 27.324219 C 24.351562 27.542969 24.113281 27.453125 23.871094 27.5 Z M 23.871094 27.5 "/>
<path style=" stroke:none;fill-rule:nonzero;fill:rgb(0%,0%,0%);fill-opacity:1;" d="M 45.742188 25.957031 C 45.230469 27.019531 44.476562 27.792969 43.386719 28.171875 C 42.253906 28.5625 41.390625 29.242188 40.824219 30.300781 C 40.792969 30.359375 40.746094 30.417969 40.699219 30.46875 C 40.683594 30.488281 40.648438 30.488281 40.609375 30.503906 C 40.476562 30.386719 40.59375 30.277344 40.632812 30.171875 C 41.050781 29.042969 41.800781 28.125 42.535156 27.199219 C 43.105469 26.480469 43.6875 25.757812 43.839844 24.828125 C 43.945312 24.210938 44.015625 23.585938 44.171875 22.980469 C 44.414062 22.050781 44.742188 21.15625 45.410156 20.429688 C 45.636719 20.179688 45.886719 19.953125 46.234375 19.859375 C 46.335938 20.042969 46.195312 20.144531 46.125 20.25 C 45.367188 21.375 44.9375 22.601562 44.945312 23.972656 C 44.949219 24.53125 44.863281 25.082031 44.6875 25.613281 C 44.640625 25.75 44.574219 25.878906 44.679688 26.039062 C 45.214844 25.957031 45.429688 25.378906 45.925781 25.175781 C 45.984375 25.476562 45.839844 25.695312 45.742188 25.957031 Z M 45.742188 25.957031 "/>
<path style=" stroke:none;fill-rule:nonzero;fill:rgb(0%,0%,0%);fill-opacity:1;" d="M 23.25 29.789062 C 23.160156 30.050781 23.375 30.003906 23.484375 30.035156 C 24.410156 30.296875 25.355469 30.394531 26.316406 30.324219 C 26.5625 30.308594 26.816406 30.265625 27.082031 30.351562 C 25.488281 32.101562 19.996094 31.125 18.695312 28.847656 C 19.730469 29.226562 20.738281 29.179688 21.753906 28.992188 C 22.746094 28.804688 23.695312 28.484375 24.644531 28.128906 C 24.769531 28.808594 24.285156 29.367188 23.25 29.789062 Z M 23.25 29.789062 "/>
<path style=" stroke:none;fill-rule:nonzero;fill:rgb(0%,0%,0%);fill-opacity:1;" d="M 29.792969 34.328125 C 30.304688 33.957031 30.636719 33.449219 31.082031 32.984375 C 31.257812 33.359375 31.105469 33.65625 31.011719 33.949219 C 30.859375 34.4375 30.914062 34.523438 31.410156 34.46875 C 31.933594 34.40625 32.445312 34.273438 32.929688 34.058594 C 33.429688 33.839844 33.773438 33.484375 33.996094 32.957031 C 34.347656 32.128906 35.023438 31.671875 35.941406 31.550781 C 35.144531 32.042969 35.121094 32.992188 34.644531 33.667969 C 33.859375 34.785156 32.753906 35.375 31.472656 35.683594 C 29.980469 36.046875 28.476562 36.011719 26.972656 35.792969 C 26.886719 35.777344 26.804688 35.753906 26.726562 35.722656 C 26.6875 35.710938 26.65625 35.679688 26.535156 35.597656 C 27.78125 35.46875 28.851562 35.089844 29.792969 34.328125 Z M 29.792969 34.328125 "/>
<path style=" stroke:none;fill-rule:nonzero;fill:rgb(0%,0%,0%);fill-opacity:1;" d="M 22.640625 33.445312 C 22.417969 33.277344 22.488281 33.210938 22.695312 33.191406 C 23.121094 33.144531 23.550781 33.136719 23.964844 33.042969 C 25.277344 32.75 26.433594 32.105469 27.539062 31.371094 C 27.691406 31.273438 27.816406 31.125 28.082031 31.125 C 27.871094 32.171875 27.097656 32.742188 26.222656 33.355469 C 27.671875 33.738281 28.9375 33.390625 30.222656 33.085938 C 29.804688 33.566406 29.28125 33.878906 28.707031 34.101562 C 26.585938 34.925781 24.601562 34.4375 22.640625 33.445312 Z M 22.640625 33.445312 "/>
<path style=" stroke:none;fill-rule:nonzero;fill:rgb(0%,0%,0%);fill-opacity:1;" d="M 49.214844 31.164062 C 47.484375 32.101562 45.695312 32.046875 43.875 31.664062 C 44.59375 31.398438 45.367188 31.40625 46.136719 31.144531 C 45.765625 30.710938 45.117188 30.742188 44.855469 30.074219 C 46.527344 30.449219 48.136719 30.539062 49.800781 30.570312 C 49.6875 30.917969 49.4375 31.003906 49.214844 31.164062 Z M 49.214844 31.164062 "/>
<path style=" stroke:none;fill-rule:nonzero;fill:rgb(0%,0%,0%);fill-opacity:1;" d="M 45.238281 33.804688 C 43.957031 33.917969 42.792969 33.675781 41.695312 33.089844 C 42.179688 33.050781 42.652344 33.195312 43.132812 33.125 C 43.296875 33.101562 43.503906 33.160156 43.589844 32.96875 C 43.664062 32.796875 43.480469 32.695312 43.402344 32.570312 C 43.273438 32.371094 43.089844 32.203125 43.035156 31.8125 C 44.375 32.679688 45.796875 32.890625 47.285156 32.886719 C 46.722656 33.46875 46.015625 33.671875 45.238281 33.804688 Z M 45.238281 33.804688 "/>
<path style=" stroke:none;fill-rule:nonzero;fill:rgb(0%,0%,0%);fill-opacity:1;" d="M 40.042969 33.914062 C 40.269531 33.972656 40.464844 34.019531 40.65625 34.066406 C 40.757812 34.089844 40.859375 34.105469 40.933594 34.015625 C 41.011719 33.914062 40.9375 33.828125 40.894531 33.738281 C 40.777344 33.488281 40.578125 33.265625 40.671875 32.828125 C 41.5 34.003906 42.585938 34.671875 43.972656 35.003906 C 42.550781 35.691406 39.363281 34.703125 38.976562 33.527344 C 39.363281 33.582031 39.671875 33.792969 40.042969 33.914062 Z M 40.042969 33.914062 "/>
</g>
</svg>
